<svg xmlns="http://www.w3.org/2000/svg"
	xmlns:xlink="http://www.w3.org/1999/xlink" version="1.1" x="0px" y="0px" viewBox="0 0 100 100" enable-background="new 0 0 100 100" xml:space="preserve">
	<path  fill="white"  fill-rule="evenodd" clip-rule="evenodd" d="M90.863,20.467l-39.86,40.872c-0.523,0.54-1.474,0.54-1.997,0.011  C31.578,43.433,17.762,28.945,10.755,21.264l-0.725-0.797H90.863z M95,24.707v48.736L71.24,49.075L95,24.707z M5,23.721  c3.845,4.439,10.614,11.636,22.317,23.765l1.489,1.542L5,73.442V23.721z M32.928,53.292c3.583,3.701,7.549,7.78,11.936,12.291  c1.373,1.406,3.195,2.183,5.141,2.183c1.941,0,3.763-0.776,5.136-2.183L67.1,53.32l25.566,26.213H7.339L32.928,53.292z"/>
</svg>